<svg viewBox="0 0 16 16" xmlns="http://www.w3.org/2000/svg"><path d="M7.98.06c1.34 0 2.43.02 3.27.05.72.03 1.36.16 1.92.37a3.99 3.99 0 012.31 2.32c.22.56.35 1.2.38 1.92a89.87 89.87 0 010 6.53 5.96 5.96 0 01-.38 1.92 3.99 3.99 0 01-.9 1.4 3.99 3.99 0 01-1.4.91c-.57.22-1.21.35-1.93.38-.84.03-1.93.05-3.27.05a91.88 91.88 0 01-3.26-.05 5.96 5.96 0 01-1.92-.38 3.99 3.99 0 01-1.4-.9 3.99 3.99 0 01-.92-1.4 6.02 6.02 0 01-.37-1.93 91.73 91.73 0 01-.05-3.27c0-1.33.02-2.42.05-3.26C.14 4 .27 3.36.49 2.8c.2-.55.5-1.01.9-1.4A3.99 3.99 0 012.8.47C3.37.27 4 .14 4.73.11A91.73 91.73 0 017.98.06zm0 1.03c-1.38 0-2.51.02-3.39.05-.56.02-1.08.12-1.56.3a2.85 2.85 0 00-1.6 1.6 5 5 0 00-.29 1.55A98.83 98.83 0 001.1 8c0 1.38.02 2.51.05 3.38.02.57.12 1.09.3 1.57.31.75.84 1.28 1.6 1.6.47.17 1 .27 1.55.29a99.38 99.38 0 006.79 0 5.01 5.01 0 001.56-.3 2.85 2.85 0 001.6-1.6c.17-.47.27-1 .29-1.55a99.38 99.38 0 000-6.79 5.01 5.01 0 00-.3-1.56 2.85 2.85 0 00-1.6-1.6 5 5 0 00-1.55-.29 98.8 98.8 0 00-3.4-.05zm0 10.07c.88 0 1.63-.31 2.25-.93.62-.62.93-1.37.93-2.25s-.31-1.62-.93-2.24a3.06 3.06 0 00-2.25-.93c-.87 0-1.62.31-2.24.93-.62.62-.93 1.37-.93 2.24s.31 1.63.93 2.25c.62.62 1.37.93 2.24.93zm0-7.24c1.13 0 2.09.4 2.88 1.19.8.8 1.19 1.75 1.19 2.87s-.4 2.09-1.2 2.88c-.78.8-1.74 1.19-2.87 1.19s-2.08-.4-2.87-1.2c-.8-.78-1.19-1.74-1.19-2.87s.4-2.08 1.19-2.87c.8-.8 1.75-1.19 2.87-1.19zm5.2-.15a.9.9 0 01-.29.66.95.95 0 01-.69.27.9.9 0 01-.66-.27.9.9 0 01-.27-.66c0-.27.09-.5.27-.7a.9.9 0 01.66-.27.93.93 0 01.68.29.93.93 0 01.3.68z"/></svg>
