<svg viewBox="0 0 23 13" xmlns="http://www.w3.org/2000/svg"><path d="M.07 2c0-.63.42-.96 1.27-1.01L4.6 1c.22 0 .36.09.44.27.33.91.7 1.7 1.12 2.37.42.66.96 1.43 1.63 2.3a.3.3 0 00.29.16.28.28 0 00.24-.13l.07-.2.02-3.16c0-.22-.06-.37-.19-.44A1.92 1.92 0 007.53 2c-.26-.04-.4-.17-.4-.4 0-.05.02-.09.03-.11C7.46.7 8.34.3 9.8.3L11 .29c.56 0 1.02.12 1.38.35.37.23.55.6.55 1.1v4.15a.56.56 0 00.28.09c.22 0 .41-.11.57-.33 1.6-1.88 2.48-3.13 2.6-3.77a.29.29 0 01.05-.09c.1-.18.27-.34.5-.47.24-.14.44-.23.62-.28a.5.5 0 01.2-.04h3.39l.22.02c.29 0 .51.12.67.35a.63.63 0 01.12.24 1.5 1.5 0 01.06.4v.13c-.1.5-.36 1.03-.78 1.6-.41.57-.94 1.18-1.58 1.84-.65.66-1.05 1.09-1.2 1.3-.14.14-.2.28-.2.4 0 .1.05.2.17.33l3.2 3.36a.94.94 0 01.26.64c0 .28-.13.52-.4.7a1.83 1.83 0 01-.94.3l-.37.03h-3.33a.8.8 0 00-.08 0 .8.8 0 01-.1.02c-.31 0-.61-.12-.89-.35l-2.06-2.16a1.1 1.1 0 00-.3-.24 26.3 26.3 0 00-.44 1.63l-.07.31c-.14.43-.45.68-.92.77l-.3.02H9.74a5.92 5.92 0 01-3.62-1.4 14.53 14.53 0 01-3.25-3.59A32.86 32.86 0 01.18 2.52 1.25 1.25 0 01.07 2zm13.15 4.73a1.66 1.66 0 01-.83-.21c-.25-.14-.37-.33-.37-.58v-4.2c0-.25-.07-.42-.22-.52-.14-.1-.4-.16-.77-.16L9.8 1.1c-.63 0-1.1.09-1.42.27.64.26.96.67.96 1.24v3.22c-.03.3-.18.56-.44.76a1.4 1.4 0 01-.88.3c-.43 0-.77-.17-1-.53a18.52 18.52 0 01-2.54-4.1l-.2-.47-2.9-.02c-.2 0-.3.01-.33.03-.02.02-.03.07-.03.16 0 .1.02.22.05.34l.46 1.03A23.41 23.41 0 005.5 9.58c1.44 1.53 2.85 2.29 4.23 2.29h2.2c.08 0 .15-.02.19-.06a.53.53 0 00.1-.25l.05-.19.42-1.6c.11-.22.22-.37.3-.44a.86.86 0 01.57-.2c.35 0 .71.17 1.08.53l1.86 1.97c.11.16.24.24.37.24h3.6c.45 0 .67-.1.67-.28a.31.31 0 00-.07-.18l-3.17-3.3a1.17 1.17 0 01-.38-.83c0-.3.12-.58.35-.84A18 18 0 0119 5.22a28.2 28.2 0 001.43-1.59c.41-.5.68-.94.81-1.35l.07-.23a.24.24 0 01-.02-.12c0-.06-.01-.1-.03-.14h-3.43a1.2 1.2 0 00-.53.33l-.13.35c-.36.84-1.32 2.14-2.86 3.9a1.67 1.67 0 01-1.08.36z"/></svg>
